<svg xmlns="http://www.w3.org/2000/svg" viewBox="0 0 378 450" width="378" height="450">
<g transform="translate(0,450) scale(0.1,-0.1)" fill="#2f6ff0"><path d="M386 4443 c-38 -14 -92 -39 -120 -57 -66 -42 -164 -149 -196 -211
-57 -114 -53 -35 -57 -1420 -2 -872 0 -1307 7 -1365 6 -47 13 -103 16 -125 3
-22 9 -49 14 -60 5 -11 21 -56 36 -100 14 -44 42 -113 62 -153 39 -82 141
-231 205 -299 23 -24 43 -48 45 -53 4 -12 154 -136 221 -184 130 -92 301 -171
466 -214 22 -6 59 -15 82 -21 85 -23 193 -34 358 -38 156 -4 172 -3 187 14 16
17 17 160 19 1939 1 1481 -2 1930 -11 1965 -36 129 -126 254 -237 325 -29 18
-85 45 -126 59 l-74 25 -414 -1 -414 -1 -69 -25z m586 -1344 c114 -22 201 -65
271 -133 101 -96 132 -171 131 -316 -1 -84 -4 -102 -30 -155 -57 -117 -182
-222 -304 -256 -54 -15 -251 -17 -300 -3 -133 40 -261 151 -311 269 -27 64
-29 78 -26 165 5 133 46 223 140 305 71 62 148 99 247 121 73 15 118 16 182 3z
m-344 -1217 c42 -27 91 -52 107 -56 115 -28 218 -28 302 0 23 7 73 33 111 58
67 43 71 44 93 28 49 -33 51 -62 8 -102 -30 -27 -133 -82 -205 -110 -21 -7
-79 -10 -170 -8 -116 2 -146 6 -184 24 -25 12 -61 29 -80 38 -47 21 -106 76
-115 103 -5 17 1 29 21 48 15 14 29 25 31 25 2 0 38 -22 81 -48z"/>
<path d="M820 2840 c13 -8 13 -13 1 -32 -12 -22 -12 -22 4 -6 19 18 14 48 -7
48 -9 0 -8 -3 2 -10z"/>
<path d="M900 2518 c-19 -16 -26 -26 -15 -20 18 9 64 53 54 52 -2 -1 -20 -15
-39 -32z"/>
<path d="M690 2480 c8 -5 20 -10 25 -10 6 0 3 5 -5 10 -8 5 -19 10 -25 10 -5
0 -3 -5 5 -10z"/>
<path d="M748 2463 c6 -2 18 -2 25 0 6 3 1 5 -13 5 -14 0 -19 -2 -12 -5z"/>
<path d="M2435 4458 c-16 -6 -50 -17 -75 -26 -88 -30 -232 -152 -271 -231 -7
-14 -18 -33 -25 -41 -10 -14 -19 -44 -43 -152 -8 -32 -11 -637 -11 -1928 0
-1666 2 -1884 15 -1910 l16 -30 165 0 c91 0 184 4 207 9 23 5 80 17 127 27
232 46 472 159 660 309 97 77 280 262 280 282 0 5 10 19 23 33 56 62 147 234
190 360 59 172 57 107 57 1548 0 1468 4 1373 -66 1492 -67 115 -170 198 -305
244 l-76 26 -419 -1 c-254 -1 -431 -5 -449 -11z m540 -1362 c76 -16 162 -57
223 -105 54 -43 114 -128 132 -186 7 -22 16 -48 21 -57 13 -25 11 -135 -2
-177 -51 -167 -183 -292 -356 -337 -64 -17 -202 -18 -252 -3 -64 20 -160 70
-210 109 -30 24 -67 69 -96 117 l-48 78 -1 120 c0 114 1 123 29 175 43 80 146
180 228 220 114 56 220 71 332 46z m-285 -1264 c48 -22 68 -25 165 -24 124 0
148 7 253 71 l73 44 27 -20 c15 -11 28 -29 30 -40 4 -25 -64 -88 -122 -114
-23 -10 -45 -21 -49 -25 -4 -4 -24 -14 -45 -21 -51 -18 -285 -18 -332 0 -119
45 -230 120 -230 154 0 8 14 28 31 44 l31 29 56 -37 c31 -20 82 -47 112 -61z"/>
<path d="M2738 2463 c6 -2 18 -2 25 0 6 3 1 5 -13 5 -14 0 -19 -2 -12 -5z"/></g>
<g transform="translate(0,450) scale(0.1,-0.1)" fill="#ffffff"><path d="M790 3096 c-99 -22 -176 -59 -247 -121 -94 -82 -135 -172 -140 -305
-3 -87 -1 -101 26 -165 50 -118 178 -229 311 -269 49 -14 246 -12 300 3 122
34 247 139 304 256 26 53 29 71 30 155 1 145 -30 220 -131 316 -70 68 -157
111 -271 133 -64 13 -109 12 -182 -3z m50 -265 c0 -11 -4 -23 -10 -26 -19 -12
-11 -73 12 -95 23 -21 77 -27 94 -10 17 17 42 1 49 -30 7 -31 -19 -98 -53
-137 -28 -32 -120 -73 -163 -73 -21 0 -59 9 -86 21 -88 37 -133 100 -133 184
0 64 24 111 78 150 45 33 51 35 130 35 75 0 82 -2 82 -19z"/>
<path d="M2768 3095 c-95 -20 -186 -71 -258 -144 -36 -36 -79 -91 -95 -121
-28 -52 -29 -61 -29 -175 l1 -120 48 -78 c29 -48 66 -93 96 -117 50 -39 146
-89 210 -109 50 -15 188 -14 252 3 173 45 305 170 356 337 13 42 15 152 2 177
-5 9 -14 35 -21 57 -30 98 -124 197 -237 251 -108 51 -214 64 -325 39z m55
-265 c3 -11 1 -23 -4 -26 -5 -3 -9 -22 -9 -43 0 -31 5 -42 26 -56 25 -16 39
-16 91 0 18 6 25 2 34 -18 16 -35 -11 -113 -56 -159 -37 -38 -110 -68 -165
-68 -55 0 -137 46 -171 97 -68 98 -40 203 71 276 17 11 48 16 101 16 68 1 77
-1 82 -19z"/>
<path d="M516 1905 c-20 -19 -26 -31 -21 -48 9 -27 68 -82 115 -103 19 -9 55
-26 80 -38 38 -18 68 -22 184 -24 91 -2 149 1 170 8 72 28 175 83 205 110 43
40 41 69 -8 102 -22 16 -26 15 -93 -28 -38 -25 -88 -51 -111 -58 -84 -28 -187
-28 -302 0 -16 4 -65 29 -107 56 -43 26 -79 48 -81 48 -2 0 -16 -11 -31 -25z"/>
<path d="M2491 1901 c-17 -16 -31 -36 -31 -44 0 -34 111 -109 230 -154 47 -18
281 -18 332 0 21 7 41 17 45 21 4 4 26 15 49 25 58 26 126 89 122 114 -2 11
-15 29 -30 40 l-27 20 -73 -44 c-105 -64 -129 -71 -253 -71 -97 -1 -117 2
-165 24 -30 14 -81 41 -112 61 l-56 37 -31 -29z"/></g>
<g transform="translate(0,450) scale(0.1,-0.1)" fill="#16244a"><path d="M675 2834 c-68 -35 -93 -63 -110 -121 -14 -49 -15 -63 -4 -98 16 -52
83 -117 137 -132 81 -25 147 -11 211 43 35 29 71 95 71 130 0 29 -27 51 -42
36 -21 -21 -73 -14 -102 13 -29 27 -35 71 -13 105 10 17 9 22 -3 30 -23 15
-112 12 -145 -6z"/>
<path d="M2658 2832 c-49 -23 -76 -49 -99 -94 -29 -57 -25 -116 12 -172 17
-25 41 -52 53 -58 37 -22 90 -38 122 -38 42 0 114 26 145 53 44 38 73 111 62
154 -4 20 -10 23 -27 18 -54 -17 -66 -16 -95 5 -25 17 -31 28 -31 59 0 20 5
42 11 48 7 7 5 15 -6 27 -22 21 -99 21 -147 -2z"/></g>
</svg>
